<svg width="24" height="25" viewBox="0 0 24 25" fill="none" xmlns="http://www.w3.org/2000/svg">
<g id="icon-phone ">
<path id="Union" fill-rule="evenodd" clip-rule="evenodd" d="M18.099 15.973C18.6 16.061 19.393 16.098 20.023 16.113C20.568 16.126 21 16.57 21 17.115V20.625C21 21.063 20.672 21.625 20 21.625C15.461 21.625 11.126 19.785 7.966 16.659C4.84 13.499 3 9.164 3 4.625C3 3.953 3.562 3.625 4 3.625H7.51C8.055 3.625 8.499 4.057 8.512 4.602C8.528 5.232 8.564 6.025 8.653 6.526C8.748 7.068 8.935 7.72 9.077 8.178C9.189 8.538 9.09 8.93 8.824 9.197L6.62 11.415C7.427 12.947 8.367 14.174 9.412 15.213C10.451 16.258 11.678 17.198 13.21 18.005L15.427 15.801C15.694 15.535 16.086 15.436 16.446 15.548C16.905 15.691 17.557 15.877 18.099 15.973Z" fill="#310A90"/>
</g>
</svg>
